# xmcd
#
# Track frame offsets:
#	150
#	17615
#	36682
#	49152
#	67292
#	81840
#	99767
#	111572
#	134607
#	153452
#	167825
#	183312
#	213985
#
# Disc length: 3068 seconds
#
# Revision: 1
# Processed by: cddbd v1.5.2PL0 Copyright (c) Steve Scherf et al.
# Submitted via: audiograbber 1.83.01
#
DISCID=bd0bfa0d
DTITLE=Scott Phillips - Day One
DYEAR=1900
DGENRE=Country
TTITLE0=Stop Signs
TTITLE1=If We'd Never Found Each Other
TTITLE2=Where You're Comin' From
TTITLE3=Man In The Moon 
TTITLE4=You Caught Me At A Bad Time 
TTITLE5=My Love Will Always Be Like That
TTITLE6=48 Hours
TTITLE7=Every Rose Has Its Thorn
TTITLE8=Blue Anymore
TTITLE9=Day One
TTITLE10=Comin' Home
TTITLE11=All That's Left Of Me
TTITLE12=Old Man Of Mine
EXTD=
EXTT0=
EXTT1=
EXTT2=
EXTT3=
EXTT4=
EXTT5=
EXTT6=
EXTT7=
EXTT8=
EXTT9=
EXTT10=
EXTT11=
EXTT12=
PLAYORDER=
